<svg xmlns="http://www.w3.org/2000/svg" version="1.1" xmlns:xlink="http://www.w3.org/1999/xlink" xmlns:svgjs="http://svgjs.dev/svgjs" width="1000" height="1000" viewBox="0 0 1000 1000"><rect width="1000" height="1000" fill="#ffffff"></rect><g transform="matrix(0.7,0,0,0.7,149.5757577300829,282.13185546558714)"><svg viewBox="0 0 396 247" data-background-color="#ffffff" preserveAspectRatio="xMidYMid meet" height="623" width="1000" xmlns="http://www.w3.org/2000/svg" xmlns:xlink="http://www.w3.org/1999/xlink"><g id="tight-bounds" transform="matrix(1,0,0,1,0.24000008730411082,-0.09999999999999432)"><svg viewBox="0 0 395.52 247.2" height="247.2" width="395.52"><g><svg></svg></g><g><svg viewBox="0 0 395.52 247.2" height="247.2" width="395.52"><g><g><path xmlns="http://www.w3.org/2000/svg" d="M100.815 247.203l0-37.404 193.89 0v37.404zM100.815-0.003h50.141l0 37.404h-50.141z" fill="#000000" fill-rule="nonzero" stroke="none" stroke-width="1" stroke-linecap="butt" stroke-linejoin="miter" stroke-miterlimit="10" stroke-dasharray="" stroke-dashoffset="0" font-family="none" font-weight="none" font-size="none" text-anchor="none" style="mix-blend-mode: normal" data-fill-palette-color="tertiary"></path></g></g><g transform="matrix(1,0,0,1,0,58.54445918141042)"><svg viewBox="0 0 395.52 130.11108163717915" height="130.11108163717915" width="395.52"><g><svg viewBox="0 0 395.52 130.11108163717915" height="130.11108163717915" width="395.52"><g><svg viewBox="0 0 395.52 130.11108163717915" height="130.11108163717915" width="395.52"><g id="textblocktransform"><svg viewBox="0 0 395.52 130.11108163717915" height="130.11108163717915" width="395.52" id="textblock"><g><svg viewBox="0 0 395.52 89.56329425060036" height="89.56329425060036" width="395.52"><g transform="matrix(1,0,0,1,0,0)"><svg width="395.52" viewBox="5.420000076293945 -38.619998931884766 172.82000732421875 39.12999725341797" height="89.56329425060036" data-palette-color="#2ecc40"><path d="M5.42 0L5.42-38.16 13.16-38.16 13.16-6.79 35.35-6.79 35.35 0 5.42 0ZM41.4-16.21L41.4-38.16 49.14-38.16 49.14-17.14Q49.14-14.55 49.85-12.54 50.56-10.52 51.96-9.13 53.37-7.74 55.44-7.02 57.52-6.3 60.28-6.3L60.28-6.3Q63.01-6.3 65.1-7.02 67.19-7.74 68.59-9.13 69.99-10.52 70.7-12.54 71.41-14.55 71.41-17.14L71.41-17.14 71.41-38.16 79.15-38.16 79.15-16.21Q79.15-12.45 77.88-9.38 76.61-6.3 74.19-4.1 71.77-1.9 68.27-0.71 64.77 0.49 60.28 0.49L60.28 0.49Q55.78 0.49 52.28-0.71 48.78-1.9 46.36-4.1 43.94-6.3 42.67-9.38 41.4-12.45 41.4-16.21L41.4-16.21ZM85.96-19.43L85.96-19.43Q85.96-23.46 87.47-26.97 88.98-30.47 91.89-33.06 94.79-35.64 99.03-37.13 103.27-38.62 108.74-38.62L108.74-38.62Q110.71-38.62 112.7-38.42 114.69-38.21 116.63-37.77 118.57-37.33 120.42-36.66 122.26-35.99 123.92-35.06L123.92-35.06 120.36-29.2Q119.36-29.79 118.09-30.26 116.82-30.74 115.36-31.07 113.91-31.4 112.36-31.57 110.81-31.74 109.25-31.74L109.25-31.74Q105.63-31.74 102.8-30.82 99.97-29.91 98.02-28.26 96.06-26.61 95.04-24.32 94.01-22.02 94.01-19.29L94.01-19.29Q94.01-16.46 95.09-14.09 96.16-11.72 98.14-10.01 100.12-8.3 102.92-7.34 105.73-6.37 109.2-6.37L109.2-6.37Q111.96-6.37 114.25-6.99 116.55-7.62 118.26-8.76 119.97-9.91 121.04-11.54 122.11-13.16 122.46-15.19L122.46-15.19 109.13-15.19 109.13-21.56 129.41-21.56 129.41-21.53 129.44-21.56Q130.05-18.63 129.82-15.86 129.58-13.09 128.55-10.63 127.51-8.18 125.7-6.13 123.9-4.08 121.38-2.6 118.87-1.12 115.67-0.31 112.47 0.51 108.66 0.51L108.66 0.51Q103.34 0.51 99.13-1.05 94.92-2.61 91.99-5.32 89.06-8.03 87.51-11.67 85.96-15.31 85.96-19.43ZM133.66 0L151.58-38.16 159.78-38.16 178.24 0 170.11 0 167.06-6.42 144.77-6.42 141.81 0 133.66 0ZM147.72-12.79L164.01-12.79 155.75-30.13 147.72-12.79Z" opacity="1" transform="matrix(1,0,0,1,0,0)" fill="#000000" class="undefined-text-0" data-fill-palette-color="primary" id="text-0"></path></svg></g></svg></g><g transform="matrix(1,0,0,1,0,110.7070385041051)"><svg viewBox="0 0 232.209792 19.404043133074076" height="19.404043133074076" width="232.209792"><g transform="matrix(1,0,0,1,0,0)"><svg width="232.209792" viewBox="0.75 -33.29999923706055 527.0900268554688 44.04999923706055" height="19.404043133074076" data-palette-color="#2ecc40"><path d="M39.55-33L39.55-32.5Q38.55-32.5 37.85-31.65 37.15-30.8 36.9-29.8L36.9-29.8 27.8 0.2 20-24.4 12.2 0.25 3.05-29.75Q2.8-30.7 2.18-31.6 1.55-32.5 0.75-32.5L0.75-32.5 0.75-33 7.85-33 7.85-32.5Q7.2-32.5 6.78-31.98 6.35-31.45 6.35-30.65L6.35-30.65Q6.35-30.4 6.45-30L6.45-30 12.95-8.8 20.9-33.3 28.55-8.85 35.15-30Q35.15-30.1 35.23-30.43 35.3-30.75 35.3-30.95L35.3-30.95Q35.3-31.65 34.9-32.08 34.5-32.5 34.1-32.5L34.1-32.5 34.1-33 39.55-33ZM56.6-10.1L39.25-10.1Q39.45-8.35 40.1-6.78 40.75-5.2 41.82-4 42.9-2.8 44.45-2.08 46-1.35 48.05-1.35L48.05-1.35Q49.15-1.35 50.37-1.68 51.6-2 52.65-2.6 53.7-3.2 54.52-4.08 55.35-4.95 55.65-6.05L55.65-6.05 56.1-6.05 56.1-2.3Q55.8-2.3 55.42-2.1 55.05-1.9 54.55-1.6L54.55-1.6Q53.55-1 51.85-0.33 50.15 0.35 47.35 0.35L47.35 0.35Q45.1 0.35 43.07-0.3 41.05-0.95 39.5-2.3 37.95-3.65 37.02-5.75 36.1-7.85 36.1-10.75L36.1-10.75Q36.1-12.6 36.72-14.5 37.35-16.4 38.62-17.93 39.9-19.45 41.9-20.4 43.9-21.35 46.7-21.35L46.7-21.35Q49.2-21.35 51.07-20.5 52.95-19.65 54.17-18.15 55.4-16.65 56-14.6 56.6-12.55 56.6-10.1L56.6-10.1ZM46.5-19.7L46.5-19.7Q44.75-19.7 43.47-19 42.2-18.3 41.3-17.2 40.4-16.1 39.9-14.7 39.4-13.3 39.25-11.9L39.25-11.9 53.5-11.9Q53.45-13.35 52.97-14.75 52.5-16.15 51.65-17.25 50.8-18.35 49.5-19.03 48.2-19.7 46.5-19.7ZM92.19-5.7L92.19-1.8Q91.79-1.8 91.44-1.63 91.09-1.45 90.64-1.2L90.64-1.2Q89.79-0.7 88.49-0.18 87.19 0.35 85.09 0.35L85.09 0.35Q82.54 0.35 80.37-0.48 78.19-1.3 76.62-2.78 75.04-4.25 74.17-6.23 73.29-8.2 73.29-10.5L73.29-10.5Q73.29-12.65 74.07-14.6 74.84-16.55 76.29-18.05 77.74-19.55 79.87-20.45 81.99-21.35 84.69-21.35L84.69-21.35Q86.54-21.35 87.69-20.93 88.84-20.5 89.64-20.1L89.64-20.1Q90.09-19.85 90.52-19.7 90.94-19.55 91.39-19.55L91.39-19.55 91.39-15.75 90.89-15.75Q90.64-16.7 89.99-17.43 89.34-18.15 88.49-18.65 87.64-19.15 86.64-19.4 85.64-19.65 84.69-19.65L84.69-19.65Q82.64-19.65 81.09-18.93 79.54-18.2 78.54-17.03 77.54-15.85 77.04-14.35 76.54-12.85 76.54-11.25L76.54-11.25Q76.54-9.4 77.14-7.63 77.74-5.85 78.87-4.45 79.99-3.05 81.59-2.2 83.19-1.35 85.19-1.35L85.19-1.35Q86.59-1.35 87.77-1.75 88.94-2.15 89.77-2.8 90.59-3.45 91.09-4.23 91.59-5 91.69-5.7L91.69-5.7 92.19-5.7ZM109.24-20.4L107.74-17.35Q107.14-18.35 106.49-18.6 105.84-18.85 104.99-18.85L104.99-18.85Q104.44-18.85 103.82-18.6 103.19-18.35 102.59-17.95 101.99-17.55 101.42-17.07 100.84-16.6 100.44-16.2L100.44-16.2 100.44-3.2Q100.44-2.8 100.54-2.35 100.64-1.9 100.87-1.48 101.09-1.05 101.37-0.78 101.64-0.5 102.04-0.5L102.04-0.5 102.04 0 95.54 0 95.54-0.5Q95.89-0.5 96.19-0.78 96.49-1.05 96.72-1.48 96.94-1.9 97.04-2.35 97.14-2.8 97.14-3.2L97.14-3.2 97.14-17.15Q97.14-17.85 96.69-18.55 96.24-19.25 95.39-19.45L95.39-19.45 95.39-19.85 100.44-21.35 100.44-18.35Q100.89-18.9 101.39-19.43 101.89-19.95 102.52-20.38 103.14-20.8 103.89-21.08 104.64-21.35 105.64-21.35L105.64-21.35Q106.34-21.35 107.44-21.05 108.54-20.75 109.24-20.4L109.24-20.4ZM132.49-10.1L115.14-10.1Q115.34-8.35 115.99-6.78 116.64-5.2 117.71-4 118.79-2.8 120.34-2.08 121.89-1.35 123.94-1.35L123.94-1.35Q125.04-1.35 126.26-1.68 127.49-2 128.54-2.6 129.59-3.2 130.41-4.08 131.24-4.95 131.54-6.05L131.54-6.05 131.99-6.05 131.99-2.3Q131.69-2.3 131.31-2.1 130.94-1.9 130.44-1.6L130.44-1.6Q129.44-1 127.74-0.33 126.04 0.35 123.24 0.35L123.24 0.35Q120.99 0.35 118.96-0.3 116.94-0.95 115.39-2.3 113.84-3.65 112.91-5.75 111.99-7.85 111.99-10.75L111.99-10.75Q111.99-12.6 112.61-14.5 113.24-16.4 114.51-17.93 115.79-19.45 117.79-20.4 119.79-21.35 122.59-21.35L122.59-21.35Q125.09-21.35 126.96-20.5 128.84-19.65 130.06-18.15 131.29-16.65 131.89-14.6 132.49-12.55 132.49-10.1L132.49-10.1ZM122.39-19.7L122.39-19.7Q120.64-19.7 119.36-19 118.09-18.3 117.19-17.2 116.29-16.1 115.79-14.7 115.29-13.3 115.14-11.9L115.14-11.9 129.39-11.9Q129.34-13.35 128.86-14.75 128.39-16.15 127.54-17.25 126.69-18.35 125.39-19.03 124.09-19.7 122.39-19.7ZM153.34 0L148.49 0 148.49-2.55 148.24-2.3Q146.99-1.05 145.36-0.35 143.74 0.35 141.44 0.35L141.44 0.35Q139.69 0.35 138.44-0.05 137.19-0.45 136.39-1.18 135.59-1.9 135.21-2.85 134.84-3.8 134.84-4.85L134.84-4.85Q134.84-6.55 135.76-7.85 136.69-9.15 138.44-10.15 140.19-11.15 142.71-11.98 145.24-12.8 148.49-13.6L148.49-13.6Q148.39-15.55 147.69-16.75 146.99-17.95 146.04-18.63 145.09-19.3 144.04-19.53 142.99-19.75 142.24-19.75L142.24-19.75Q140.94-19.75 139.96-19.35 138.99-18.95 138.26-18.32 137.54-17.7 137.04-16.98 136.54-16.25 136.24-15.6L136.24-15.6 135.79-15.6 135.79-19.25Q136.19-19.3 136.54-19.5 136.89-19.7 137.39-19.9L137.39-19.9Q138.14-20.2 139.44-20.78 140.74-21.35 143.09-21.35L143.09-21.35Q145.84-21.35 147.54-20.65 149.24-19.95 150.16-18.8 151.09-17.65 151.39-16.18 151.69-14.7 151.69-13.15L151.69-13.15 151.69-3.25Q151.69-2.25 152.14-1.38 152.59-0.5 153.34-0.5L153.34-0.5 153.34 0ZM147.94-4.15L148.49-4.75 148.49-11.9 147.99-11.8Q146.79-11.5 145.06-11 143.34-10.5 141.79-9.7 140.24-8.9 139.14-7.8 138.04-6.7 138.04-5.25L138.04-5.25Q138.04-3.65 139.34-2.6 140.64-1.55 142.74-1.55L142.74-1.55Q144.39-1.55 145.64-2.27 146.89-3 147.94-4.15L147.94-4.15ZM168.63-19.3L163.03-19.3 163.03-7.25Q163.03-5.95 163.08-4.9 163.13-3.85 163.33-3.15 163.53-2.45 163.93-2.08 164.33-1.7 165.03-1.7L165.03-1.7Q166.08-1.7 167.01-2.7 167.93-3.7 168.18-5.1L168.18-5.1 168.63-5.1 168.63-1.45Q168.18-1.45 167.88-1.15L167.88-1.15Q167.48-0.8 166.76-0.4 166.03 0 164.58 0L164.58 0Q162.78 0 161.78-0.7 160.78-1.4 160.33-2.55 159.88-3.7 159.81-5.1 159.73-6.5 159.73-7.95L159.73-7.95 159.73-19.3 156.93-19.3 156.93-21 159.73-21 159.73-25.45Q159.73-26.3 159.51-27.03 159.28-27.75 158.03-27.8L158.03-27.8 158.03-28.3 163.03-29.9 163.03-21 168.63-21 168.63-19.3ZM192.48-10.1L175.13-10.1Q175.33-8.35 175.98-6.78 176.63-5.2 177.71-4 178.78-2.8 180.33-2.08 181.88-1.35 183.93-1.35L183.93-1.35Q185.03-1.35 186.26-1.68 187.48-2 188.53-2.6 189.58-3.2 190.41-4.08 191.23-4.95 191.53-6.05L191.53-6.05 191.98-6.05 191.98-2.3Q191.68-2.3 191.31-2.1 190.93-1.9 190.43-1.6L190.43-1.6Q189.43-1 187.73-0.33 186.03 0.35 183.23 0.35L183.23 0.35Q180.98 0.35 178.96-0.3 176.93-0.95 175.38-2.3 173.83-3.65 172.91-5.75 171.98-7.85 171.98-10.75L171.98-10.75Q171.98-12.6 172.61-14.5 173.23-16.4 174.51-17.93 175.78-19.45 177.78-20.4 179.78-21.35 182.58-21.35L182.58-21.35Q185.08-21.35 186.96-20.5 188.83-19.65 190.06-18.15 191.28-16.65 191.88-14.6 192.48-12.55 192.48-10.1L192.48-10.1ZM182.38-19.7L182.38-19.7Q180.63-19.7 179.36-19 178.08-18.3 177.18-17.2 176.28-16.1 175.78-14.7 175.28-13.3 175.13-11.9L175.13-11.9 189.38-11.9Q189.33-13.35 188.86-14.75 188.38-16.15 187.53-17.25 186.68-18.35 185.38-19.03 184.08-19.7 182.38-19.7ZM240.28-21L240.28-20.5Q239.38-20.5 238.9-20 238.43-19.5 238.03-18.5L238.03-18.5 230.48 0.4 224.03-15.4 217.63 0.35 210.23-17.95Q209.88-18.8 209.35-19.65 208.83-20.5 207.98-20.5L207.98-20.5 207.98-21 214.83-21 214.83-20.5Q214.48-20.5 213.95-20.18 213.43-19.85 213.43-19.1L213.43-19.1Q213.43-19 213.5-18.68 213.58-18.35 213.68-18.1L213.68-18.1 218.58-6 224.88-21.55 231.23-6 236.18-18.3Q236.43-19.05 236.43-19.35L236.43-19.35Q236.43-19.75 236.18-20.1 235.93-20.45 235.33-20.5L235.33-20.5 235.33-21 240.28-21ZM263.42-12.9L263.42-3.25Q263.42-2.85 263.52-2.38 263.62-1.9 263.85-1.5 264.07-1.1 264.35-0.8 264.62-0.5 265.02-0.5L265.02-0.5 265.02 0 258.57 0 258.57-0.5Q258.92-0.5 259.22-0.8 259.52-1.1 259.75-1.5 259.97-1.9 260.07-2.38 260.17-2.85 260.17-3.25L260.17-3.25 260.17-12.55Q260.17-14.35 259.67-15.7 259.17-17.05 258.32-17.95 257.47-18.85 256.4-19.28 255.32-19.7 254.22-19.7L254.22-19.7Q253.12-19.7 252.05-19.28 250.97-18.85 250.15-18.1 249.32-17.35 248.8-16.28 248.27-15.2 248.27-13.9L248.27-13.9 248.27-3.25Q248.27-2.85 248.37-2.38 248.47-1.9 248.7-1.5 248.92-1.1 249.2-0.8 249.47-0.5 249.87-0.5L249.87-0.5 249.87 0 243.37 0 243.37-0.5Q243.72-0.5 244.02-0.8 244.32-1.1 244.55-1.5 244.77-1.9 244.87-2.38 244.97-2.85 244.97-3.25L244.97-3.25 244.97-28.8Q244.97-29.65 244.72-30.4 244.47-31.15 243.27-31.2L243.27-31.2 243.27-31.7 248.27-33.25 248.27-18.8Q248.62-19.2 249.17-19.68 249.72-20.15 250.5-20.58 251.27-21 252.3-21.28 253.32-21.55 254.72-21.55L254.72-21.55Q257.07-21.55 258.72-20.75 260.37-19.95 261.42-18.68 262.47-17.4 262.95-15.88 263.42-14.35 263.42-12.9L263.42-12.9ZM287.97 0L283.12 0 283.12-2.55 282.87-2.3Q281.62-1.05 280-0.35 278.37 0.35 276.07 0.35L276.07 0.35Q274.32 0.35 273.07-0.05 271.82-0.45 271.02-1.18 270.22-1.9 269.85-2.85 269.47-3.8 269.47-4.85L269.47-4.85Q269.47-6.55 270.4-7.85 271.32-9.15 273.07-10.15 274.82-11.15 277.35-11.98 279.87-12.8 283.12-13.6L283.12-13.6Q283.02-15.55 282.32-16.75 281.62-17.95 280.67-18.63 279.72-19.3 278.67-19.53 277.62-19.75 276.87-19.75L276.87-19.75Q275.57-19.75 274.6-19.35 273.62-18.95 272.9-18.32 272.17-17.7 271.67-16.98 271.17-16.25 270.87-15.6L270.87-15.6 270.42-15.6 270.42-19.25Q270.82-19.3 271.17-19.5 271.52-19.7 272.02-19.9L272.02-19.9Q272.77-20.2 274.07-20.78 275.37-21.35 277.72-21.35L277.72-21.35Q280.47-21.35 282.17-20.65 283.87-19.95 284.8-18.8 285.72-17.65 286.02-16.18 286.32-14.7 286.32-13.15L286.32-13.15 286.32-3.25Q286.32-2.25 286.77-1.38 287.22-0.5 287.97-0.5L287.97-0.5 287.97 0ZM282.57-4.15L283.12-4.75 283.12-11.9 282.62-11.8Q281.42-11.5 279.7-11 277.97-10.5 276.42-9.7 274.87-8.9 273.77-7.8 272.67-6.7 272.67-5.25L272.67-5.25Q272.67-3.65 273.97-2.6 275.27-1.55 277.37-1.55L277.37-1.55Q279.02-1.55 280.27-2.27 281.52-3 282.57-4.15L282.57-4.15ZM303.27-19.3L297.67-19.3 297.67-7.25Q297.67-5.95 297.72-4.9 297.77-3.85 297.97-3.15 298.17-2.45 298.57-2.08 298.97-1.7 299.67-1.7L299.67-1.7Q300.72-1.7 301.64-2.7 302.57-3.7 302.82-5.1L302.82-5.1 303.27-5.1 303.27-1.45Q302.82-1.45 302.52-1.15L302.52-1.15Q302.12-0.8 301.39-0.4 300.67 0 299.22 0L299.22 0Q297.42 0 296.42-0.7 295.42-1.4 294.97-2.55 294.52-3.7 294.44-5.1 294.37-6.5 294.37-7.95L294.37-7.95 294.37-19.3 291.57-19.3 291.57-21 294.37-21 294.37-25.45Q294.37-26.3 294.14-27.03 293.92-27.75 292.67-27.8L292.67-27.8 292.67-28.3 297.67-29.9 297.67-21 303.27-21 303.27-19.3ZM338.31-18.3L328.01 7.15Q327.31 9.25 326.24 10 325.16 10.75 324.01 10.75L324.01 10.75Q323.26 10.75 322.69 10.55 322.11 10.35 321.69 10.08 321.26 9.8 321.01 9.55 320.76 9.3 320.71 9.15L320.71 9.15 322.36 5.1Q322.61 6 322.86 6.45L322.86 6.45Q323.11 6.95 323.56 7.35 324.01 7.75 324.66 7.75L324.66 7.75Q325.86 7.75 326.56 6L326.56 6 329.01-0.15 320.96-18.35Q320.71-18.95 320.14-19.73 319.56-20.5 318.56-20.5L318.56-20.5 318.56-21 325.16-21 325.16-20.5Q324.96-20.5 324.66-20.15 324.36-19.8 324.36-19.25L324.36-19.25Q324.36-18.8 324.56-18.45L324.56-18.45 330.71-4.3 336.61-18.75Q336.76-19.1 336.76-19.4L336.76-19.4Q336.76-19.9 336.44-20.2 336.11-20.5 335.76-20.5L335.76-20.5 335.76-21 340.61-21 340.61-20.5Q339.81-20.5 339.24-19.83 338.66-19.15 338.31-18.3L338.31-18.3ZM354.21 0.35L354.21 0.35Q351.71 0.35 349.71-0.48 347.71-1.3 346.29-2.73 344.86-4.15 344.09-6.1 343.31-8.05 343.31-10.35L343.31-10.35Q343.31-12.8 344.16-14.83 345.01-16.85 346.51-18.3 348.01-19.75 350.06-20.55 352.11-21.35 354.51-21.35L354.51-21.35Q356.91-21.35 358.91-20.58 360.91-19.8 362.36-18.4 363.81-17 364.61-15.08 365.41-13.15 365.41-10.85L365.41-10.85Q365.41-8.7 364.69-6.68 363.96-4.65 362.54-3.1 361.11-1.55 359.04-0.6 356.96 0.35 354.21 0.35ZM353.91-19.7L353.91-19.7Q352.11-19.6 350.74-18.82 349.36-18.05 348.44-16.82 347.51-15.6 347.04-14.05 346.56-12.5 346.56-10.9L346.56-10.9Q346.56-9.05 347.14-7.33 347.71-5.6 348.79-4.25 349.86-2.9 351.36-2.1 352.86-1.3 354.71-1.3L354.71-1.3Q356.56-1.3 357.99-2.1 359.41-2.9 360.36-4.17 361.31-5.45 361.79-7.05 362.26-8.65 362.26-10.25L362.26-10.25Q362.26-11.9 361.76-13.58 361.26-15.25 360.21-16.63 359.16-18 357.59-18.85 356.01-19.7 353.91-19.7ZM389.66-21.55L389.66-3.25Q389.66-2.9 389.76-2.43 389.86-1.95 390.03-1.53 390.21-1.1 390.51-0.8 390.81-0.5 391.21-0.5L391.21-0.5 391.21 0 386.36 0 386.36-2.75Q385.61-1.65 384.16-0.6 382.71 0.45 380.41 0.45L380.41 0.45Q377.51 0.45 375.81-0.55 374.11-1.55 373.21-3.1 372.31-4.65 372.06-6.48 371.81-8.3 371.81-9.9L371.81-9.9 371.81-17.05Q371.81-17.5 371.78-17.93 371.76-18.35 371.58-18.7 371.41-19.05 371.06-19.28 370.71-19.5 370.06-19.5L370.06-19.5 370.06-19.95 375.11-21.55 375.11-8.8Q375.11-5 376.76-3.2 378.41-1.4 380.81-1.4L380.81-1.4Q382.11-1.4 383.13-1.98 384.16-2.55 384.88-3.35 385.61-4.15 385.98-5 386.36-5.85 386.36-6.4L386.36-6.4 386.36-17.05Q386.36-17.5 386.33-17.93 386.31-18.35 386.13-18.7 385.96-19.05 385.61-19.28 385.26-19.5 384.61-19.5L384.61-19.5 384.61-19.95 389.66-21.55ZM419.7-21.35L419.7-21.35Q422.4-21.35 424.38-20.43 426.35-19.5 427.68-18 429-16.5 429.65-14.55 430.3-12.6 430.3-10.55L430.3-10.55Q430.3-8.55 429.68-6.6 429.05-4.65 427.78-3.1 426.5-1.55 424.6-0.6 422.7 0.35 420.1 0.35L420.1 0.35Q418.55 0.35 416.93-0.48 415.3-1.3 414-2.55L414-2.55 414 7.25Q414 7.65 414.1 8.13 414.2 8.6 414.43 9 414.65 9.4 414.93 9.7 415.2 10 415.6 10L415.6 10 415.6 10.5 409.1 10.5 409.1 10Q409.45 10 409.75 9.7 410.05 9.4 410.28 9 410.5 8.6 410.6 8.13 410.7 7.65 410.7 7.25L410.7 7.25 410.7-18.05Q410.7-18.5 410.68-18.93 410.65-19.35 410.5-19.68 410.35-20 410.03-20.23 409.7-20.45 409.1-20.5L409.1-20.5 409.1-21 414-21 414-18.8Q415-20 416.43-20.68 417.85-21.35 419.7-21.35ZM420.15-1.35L420.15-1.35Q421.9-1.4 423.2-2.15 424.5-2.9 425.35-4.1 426.2-5.3 426.6-6.78 427-8.25 427-9.85L427-9.85Q427-11.65 426.5-13.4 426-15.15 425.05-16.53 424.1-17.9 422.73-18.78 421.35-19.65 419.6-19.65L419.6-19.65Q418.55-19.65 417.53-19.25 416.5-18.85 415.73-18.1 414.95-17.35 414.48-16.32 414-15.3 414-14.05L414-14.05 414-7.5Q414-6.15 414.55-5.03 415.1-3.9 415.98-3.08 416.85-2.25 417.95-1.8 419.05-1.35 420.15-1.35ZM448.5-20.4L447-17.35Q446.4-18.35 445.75-18.6 445.1-18.85 444.25-18.85L444.25-18.85Q443.7-18.85 443.08-18.6 442.45-18.35 441.85-17.95 441.25-17.55 440.68-17.07 440.1-16.6 439.7-16.2L439.7-16.2 439.7-3.2Q439.7-2.8 439.8-2.35 439.9-1.9 440.13-1.48 440.35-1.05 440.63-0.78 440.9-0.5 441.3-0.5L441.3-0.5 441.3 0 434.8 0 434.8-0.5Q435.15-0.5 435.45-0.78 435.75-1.05 435.98-1.48 436.2-1.9 436.3-2.35 436.4-2.8 436.4-3.2L436.4-3.2 436.4-17.15Q436.4-17.85 435.95-18.55 435.5-19.25 434.65-19.45L434.65-19.45 434.65-19.85 439.7-21.35 439.7-18.35Q440.15-18.9 440.65-19.43 441.15-19.95 441.78-20.38 442.4-20.8 443.15-21.08 443.9-21.35 444.9-21.35L444.9-21.35Q445.6-21.35 446.7-21.05 447.8-20.75 448.5-20.4L448.5-20.4ZM471.75-10.1L454.4-10.1Q454.6-8.35 455.25-6.78 455.9-5.2 456.97-4 458.05-2.8 459.6-2.08 461.15-1.35 463.2-1.35L463.2-1.35Q464.3-1.35 465.52-1.68 466.75-2 467.8-2.6 468.85-3.2 469.67-4.08 470.5-4.95 470.8-6.05L470.8-6.05 471.25-6.05 471.25-2.3Q470.95-2.3 470.57-2.1 470.2-1.9 469.7-1.6L469.7-1.6Q468.7-1 467-0.33 465.3 0.35 462.5 0.35L462.5 0.35Q460.25 0.35 458.22-0.3 456.2-0.95 454.65-2.3 453.1-3.65 452.17-5.75 451.25-7.85 451.25-10.75L451.25-10.75Q451.25-12.6 451.87-14.5 452.5-16.4 453.77-17.93 455.05-19.45 457.05-20.4 459.05-21.35 461.85-21.35L461.85-21.35Q464.35-21.35 466.22-20.5 468.1-19.65 469.32-18.15 470.55-16.65 471.15-14.6 471.75-12.55 471.75-10.1L471.75-10.1ZM461.65-19.7L461.65-19.7Q459.9-19.7 458.62-19 457.35-18.3 456.45-17.2 455.55-16.1 455.05-14.7 454.55-13.3 454.4-11.9L454.4-11.9 468.65-11.9Q468.6-13.35 468.12-14.75 467.65-16.15 466.8-17.25 465.95-18.35 464.65-19.03 463.35-19.7 461.65-19.7ZM486.2-19.3L480.55-19.3 480.55-3.25Q480.55-2.85 480.65-2.38 480.75-1.9 480.97-1.5 481.2-1.1 481.47-0.8 481.75-0.5 482.15-0.5L482.15-0.5 482.15 0 475.65 0 475.65-0.5Q476-0.5 476.3-0.8 476.6-1.1 476.82-1.5 477.05-1.9 477.15-2.38 477.25-2.85 477.25-3.25L477.25-3.25 477.25-19.3 474.75-19.3 474.75-21 477.25-21 477.25-25.05Q477.25-26.6 477.35-28.05 477.45-29.5 477.95-30.65 478.45-31.8 479.47-32.5 480.5-33.2 482.3-33.2L482.3-33.2Q483.3-33.2 484.02-32.98 484.75-32.75 485.27-32.48 485.8-32.2 486.15-31.98 486.5-31.75 486.75-31.75L486.75-31.75 486.75-28.1 486.3-28.1Q486.05-29.55 485-30.53 483.95-31.5 482.9-31.5L482.9-31.5Q481.45-31.5 481-29.98 480.55-28.45 480.55-25.75L480.55-25.75 480.55-21 486.2-21 486.2-19.3ZM509.99-10.1L492.64-10.1Q492.84-8.35 493.49-6.78 494.14-5.2 495.22-4 496.29-2.8 497.84-2.08 499.39-1.35 501.44-1.35L501.44-1.35Q502.54-1.35 503.77-1.68 504.99-2 506.04-2.6 507.09-3.2 507.92-4.08 508.74-4.95 509.04-6.05L509.04-6.05 509.49-6.05 509.49-2.3Q509.19-2.3 508.82-2.1 508.44-1.9 507.94-1.6L507.94-1.6Q506.94-1 505.24-0.33 503.54 0.35 500.74 0.35L500.74 0.35Q498.49 0.35 496.47-0.3 494.44-0.95 492.89-2.3 491.34-3.65 490.42-5.75 489.49-7.85 489.49-10.75L489.49-10.75Q489.49-12.6 490.12-14.5 490.74-16.4 492.02-17.93 493.29-19.45 495.29-20.4 497.29-21.35 500.09-21.35L500.09-21.35Q502.59-21.35 504.47-20.5 506.34-19.65 507.57-18.15 508.79-16.65 509.39-14.6 509.99-12.55 509.99-10.1L509.99-10.1ZM499.89-19.7L499.89-19.7Q498.14-19.7 496.87-19 495.59-18.3 494.69-17.2 493.79-16.1 493.29-14.7 492.79-13.3 492.64-11.9L492.64-11.9 506.89-11.9Q506.84-13.35 506.37-14.75 505.89-16.15 505.04-17.25 504.19-18.35 502.89-19.03 501.59-19.7 499.89-19.7ZM527.84-20.4L526.34-17.35Q525.74-18.35 525.09-18.6 524.44-18.85 523.59-18.85L523.59-18.85Q523.04-18.85 522.42-18.6 521.79-18.35 521.19-17.95 520.59-17.55 520.02-17.07 519.44-16.6 519.04-16.2L519.04-16.2 519.04-3.2Q519.04-2.8 519.14-2.35 519.24-1.9 519.47-1.48 519.69-1.05 519.97-0.78 520.24-0.5 520.64-0.5L520.64-0.5 520.64 0 514.14 0 514.14-0.5Q514.49-0.5 514.79-0.78 515.09-1.05 515.32-1.48 515.54-1.9 515.64-2.35 515.74-2.8 515.74-3.2L515.74-3.2 515.74-17.15Q515.74-17.85 515.29-18.55 514.84-19.25 513.99-19.45L513.99-19.45 513.99-19.85 519.04-21.35 519.04-18.35Q519.49-18.9 519.99-19.43 520.49-19.95 521.12-20.38 521.74-20.8 522.49-21.08 523.24-21.35 524.24-21.35L524.24-21.35Q524.94-21.35 526.04-21.05 527.14-20.75 527.84-20.4L527.84-20.4Z" opacity="1" transform="matrix(1,0,0,1,0,0)" fill="#000000" class="undefined-text-1" data-fill-palette-color="secondary" id="text-1"></path></svg></g></svg></g></svg></g></svg></g></svg></g></svg></g></svg></g><defs></defs></svg><rect width="395.52" height="247.2" fill="none" stroke="none" visibility="hidden"></rect></g></svg></g></svg>